<?xml version="1.0" encoding="UTF-8" standalone="no"?>
<!-- Created with Inkscape (http://www.inkscape.org/) -->

<svg
   width="18.923834mm"
   height="16.47892mm"
   viewBox="0 0 18.923834 16.47892"
   version="1.1"
   id="svg5"
   inkscape:version="1.1.2 (b8e25be833, 2022-02-05)"
   sodipodi:docname="copycat.svg"
   inkscape:export-filename="C:\Users\em-sta\copycat.png"
   inkscape:export-xdpi="235.1655"
   inkscape:export-ydpi="235.1655"
   xmlns:inkscape="http://www.inkscape.org/namespaces/inkscape"
   xmlns:sodipodi="http://sodipodi.sourceforge.net/DTD/sodipodi-0.dtd"
   xmlns="http://www.w3.org/2000/svg"
   xmlns:svg="http://www.w3.org/2000/svg">
  <sodipodi:namedview
     id="namedview7"
     pagecolor="#ffffff"
     bordercolor="#666666"
     borderopacity="1.0"
     inkscape:pageshadow="2"
     inkscape:pageopacity="0.0"
     inkscape:pagecheckerboard="0"
     inkscape:document-units="mm"
     showgrid="false"
     inkscape:zoom="1.1326109"
     inkscape:cx="-58.272439"
     inkscape:cy="25.604557"
     inkscape:window-width="1920"
     inkscape:window-height="1137"
     inkscape:window-x="-1928"
     inkscape:window-y="215"
     inkscape:window-maximized="1"
     inkscape:current-layer="layer1" />
  <defs
     id="defs2">
    <linearGradient
       id="linearGradient28808"
       inkscape:swatch="solid">
      <stop
         style="stop-color:#086c5b;stop-opacity:1;"
         offset="0"
         id="stop28806" />
    </linearGradient>
    <clipPath
       clipPathUnits="userSpaceOnUse"
       id="clipPath1341">
      <rect
         style="opacity:0.994;fill:#086c5b;fill-opacity:0.652824;stroke:none;stroke-width:0.63874;stroke-linejoin:round;stroke-opacity:0.843854;stop-color:#000000"
         id="rect1343"
         width="37.523918"
         height="25.163099"
         x="176.80386"
         y="-79.020912" />
    </clipPath>
    <clipPath
       clipPathUnits="userSpaceOnUse"
       id="clipPath1522">
      <rect
         style="opacity:0.994;fill:#cc7c1f;fill-opacity:0.759136;stroke:none;stroke-width:0.169;stroke-linejoin:round;stroke-opacity:0.843854;stop-color:#000000"
         id="rect1524"
         width="8.5322094"
         height="22.597399"
         x="-29.634998"
         y="139.98918" />
    </clipPath>
    <clipPath
       clipPathUnits="userSpaceOnUse"
       id="clipPath1009">
      <rect
         style="opacity:0.994;fill:#cc7c1f;fill-opacity:0.759136;stroke-width:0.169;stroke-linejoin:round;stroke-opacity:0.843854;stop-color:#000000"
         id="rect1011"
         width="9.6361971"
         height="15.709922"
         x="-29.958057"
         y="187.90266" />
    </clipPath>
    <clipPath
       clipPathUnits="userSpaceOnUse"
       id="clipPath1023">
      <path
         id="path1025"
         style="fill:#407c56;fill-opacity:0.759136;stroke:none;stroke-width:0.264583px;stroke-linecap:butt;stroke-linejoin:miter;stroke-opacity:1"
         d="m 70.590067,169.8419 0.710549,4.73873 c 0.88241,1.24695 1.67199,3.19663 0.27544,4.79557 -2.01484,2.30685 -2.94281,3.05792 -3.806489,3.10111 l -0.605642,0.03 v 0.0134 l -0.135398,-0.007 -0.134871,0.007 v -0.0134 l -0.606169,-0.03 c -0.863671,-0.0432 -1.79112,-0.79426 -3.80597,-3.10111 -1.43651,-1.6447 -0.559972,-3.6576 0.351398,-4.89789 l 0.695571,-4.63641 1.63607,2.90422 c 1.001091,-0.31346 1.871721,-0.26149 1.871721,-0.26149 0,0 0.0638,-0.004 0.176739,-0.004 0.3092,0.002 0.98684,0.0384 1.731679,0.28061 z" />
    </clipPath>
  </defs>
  <g
     inkscape:label="Lager 1"
     inkscape:groupmode="layer"
     id="layer1"
     transform="translate(-11.273188,-163.08215)">
    <path
       id="path4699"
       style="fill:#cc7c56;fill-opacity:0.98505;stroke:none;stroke-width:0.999999px;stroke-linecap:butt;stroke-linejoin:miter;stroke-opacity:1"
       d="m 42.453125,24.037109 -2.685547,17.910157 c -3.33509,4.712876 -6.319306,12.081739 -1.041016,18.125 7.615148,8.718791 11.122443,11.557488 14.386719,11.720703 l 2.289063,0.113281 v 0.05078 l 0.511718,-0.02539 0.509766,0.02539 v -0.05078 l 2.291016,-0.113281 C 61.97912,71.629754 65.484462,68.791057 73.099609,60.072266 78.528953,53.85606 75.216053,46.248258 71.771484,41.560547 L 69.142578,24.037109 60.034325,38.931611 c -9.817348,0.168958 0.137956,0.110364 -8.272245,0.196549 z"
       transform="matrix(0.26458333,0,0,0.26458333,42.94772,69.872635)"
       sodipodi:nodetypes="ccscccccccsccccc" />
    <path
       id="path6116"
       style="fill:#407c56;fill-opacity:0.759136;stroke:none;stroke-width:0.264583px;stroke-linecap:butt;stroke-linejoin:miter;stroke-opacity:1"
       d="m 55.712863,99.94334 -0.710551,4.73873 c -0.88241,1.24695 -1.671983,3.19663 -0.275436,4.79557 2.014841,2.30685 2.942813,3.05792 3.806486,3.10111 l 0.605648,0.03 v 0.0134 l 0.135392,-0.007 0.134876,0.007 v -0.0134 l 0.606164,-0.03 c 0.863673,-0.0432 1.791128,-0.79426 3.805969,-3.10111 1.436514,-1.6447 0.559976,-3.6576 -0.351399,-4.89789 l -0.695565,-4.63641 -1.636076,2.90422 c -1.001088,-0.31346 -1.87172,-0.26149 -1.87172,-0.26149 0,0 -0.0638,-0.004 -0.176734,-0.004 -0.309201,0.002 -0.986838,0.0384 -1.731677,0.28061 z" />
    <path
       id="path7094"
       style="fill:#4748ee;fill-opacity:0.569767;stroke:none;stroke-width:0.264583px;stroke-linecap:butt;stroke-linejoin:miter;stroke-opacity:1"
       d="m 55.231331,76.232453 -0.710551,4.738729 c -0.882409,1.246949 -1.671983,3.196627 -0.275436,4.795573 2.014842,2.306847 2.942813,3.057919 3.806486,3.101103 l 0.605648,0.02997 v 0.01344 l 0.135392,-0.0067 0.134876,0.0067 v -0.01344 l 0.606165,-0.02997 c 0.863673,-0.04318 1.791128,-0.794256 3.805969,-3.101103 1.436513,-1.644704 0.559975,-3.657602 -0.3514,-4.897892 l -0.695565,-4.63641 -2.409892,3.940837 c -2.597506,0.0447 0.0365,0.0292 -2.188698,0.052 z"
       sodipodi:nodetypes="ccscccccccsccccc" />
    <path
       id="path7096"
       style="fill:#407c56;fill-opacity:0.759136;stroke:none;stroke-width:0.264583px;stroke-linecap:butt;stroke-linejoin:miter;stroke-opacity:1"
       d="m 62.774447,99.94334 -0.710551,4.73873 c -0.88241,1.24695 -1.671983,3.19663 -0.275436,4.79557 2.014841,2.30685 2.942813,3.05792 3.806486,3.10111 l 0.605648,0.03 v 0.0134 l 0.135392,-0.007 0.134876,0.007 v -0.0134 l 0.606164,-0.03 c 0.863673,-0.0432 1.791128,-0.79426 3.805969,-3.10111 1.436514,-1.6447 0.559976,-3.6576 -0.351399,-4.89789 l -0.695565,-4.63641 -1.636076,2.90422 c -1.001088,-0.31346 -1.87172,-0.26149 -1.87172,-0.26149 0,0 -0.0638,-0.004 -0.176734,-0.004 -0.309201,0.002 -0.986838,0.0384 -1.731677,0.28061 z" />
    <path
       id="path9264"
       style="fill:#407c56;fill-opacity:0.759136;stroke:none;stroke-width:0.999999px;stroke-linecap:butt;stroke-linejoin:miter;stroke-opacity:1"
       d="m 4.6503906,-63.349609 -4.63867185,10.976562 c -1.61822365,6.195632 -9.20462385,12.7722 0.91210937,25.058594 C 8.5389752,-18.59565 12.046271,-15.756988 15.310547,-15.59375 l 2.289062,0.113281 v 0.05078 l 0.511719,-0.02539 0.509766,0.02539 v -0.05078 l 2.291015,-0.113281 c 2.637368,-0.131918 5.435214,-2.013094 10.427735,-7.328125 4.99252,5.315031 7.790367,7.196207 10.427734,7.328125 l 2.291016,0.113281 v 0.05078 l 0.509765,-0.02539 0.511719,0.02539 v -0.05078 l 2.289063,-0.113281 c 3.264276,-0.163238 6.771571,-3.0019 14.386718,-11.720703 10.116734,-12.286394 2.530333,-18.862962 0.91211,-25.058594 l -4.638672,-10.976562 -5.84375,11.160156 c -2.81514,-0.915436 -5.751288,-1.179941 -6.919922,-1.1875 -0.426837,0 -0.667969,0.01563 -0.667969,0.01563 0,0 -3.630423,-0.01286 -7.414062,1.171875 l -5.84375,-11.160156 -6.28711,11.048828 c -3.783639,-1.184731 -6.970703,-1.060547 -6.970703,-1.060547 0,0 -0.241131,-0.01563 -0.667969,-0.01563 -1.168633,0.0076 -4.104782,0.272064 -6.919921,1.1875 z"
       transform="matrix(0.26458333,0,0,0.26458333,52.433465,76.232453)" />
    <path
       id="path9755"
       style="opacity:0.994;fill:#4748ee;fill-opacity:0.569767;stroke:none;stroke-width:8.11843;stroke-linejoin:round;stop-color:#000000"
       d="m -196.52539,-71.855469 -3.79297,9.955078 a 16.700444,16.700444 0 0 0 -3.50976,10.832032 16.700444,16.700444 0 0 0 16.98632,16.103515 16.700444,16.700444 0 0 0 16.4043,-16.697265 l -0.043,-1.1875 a 16.700444,16.700444 0 0 0 -3.02734,-8.44336 l -4.02149,-10.5625 -3.72461,4.576172 a 16.700444,16.700444 0 0 0 -6.77539,-1.058594 16.700444,16.700444 0 0 0 -4.83203,0.984375 z"
       transform="matrix(0.26458333,0,0,0.26458333,52.433465,76.232453)" />
    <path
       id="path9864"
       style="opacity:0.994;fill:#4748ee;fill-opacity:0.569767;stroke:none;stroke-width:2.148;stroke-linejoin:round;stop-color:#000000"
       d="m -4.5899259,57.220694 -1.0035566,2.633947 a 4.4186591,4.4186591 0 0 0 -0.928624,2.865976 4.4186591,4.4186591 0 0 0 4.4942971,4.260721 4.4186591,4.4186591 0 0 0 4.3403043,-4.417818 L 2.3011258,62.249327 A 4.4186591,4.4186591 0 0 0 1.5001421,60.015355 l -1.06401922,-2.794661 -0.9854697,1.210779 a 4.4186591,4.4186591 0 0 0 -1.79265528,-0.280087 4.4186591,4.4186591 0 0 0 -1.2784746,0.260449 z" />
    <path
       id="path9866"
       style="opacity:0.994;fill:#4748ee;fill-opacity:0.569767;stroke:none;stroke-width:1.51134;stroke-linejoin:round;stop-color:#000000"
       d="m 17.033633,56.169472 -0.747142,1.751463 a 3.2896682,2.9382191 0 0 0 -0.691356,1.90575 3.2896682,2.9382191 0 0 0 3.34598,2.833198 3.2896682,2.9382191 0 0 0 3.231334,-2.93766 l -0.0085,-0.208925 A 3.2896682,2.9382191 0 0 0 21.56762,58.027803 l -0.792156,-1.858331 -0.733677,0.805116 A 3.2896682,2.9382191 0 0 0 18.7072,56.788343 3.2896682,2.9382191 0 0 0 17.755383,56.96153 Z" />
    <path
       id="path9868"
       style="opacity:0.994;fill:#4748ee;fill-opacity:0.569767;stroke:none;stroke-width:1.51134;stroke-linejoin:round;stop-color:#000000"
       d="m 16.991372,54.475837 -0.747143,1.751462 a 3.2896682,2.9382191 0 0 0 -0.691355,1.905751 3.2896682,2.9382191 0 0 0 3.34598,2.833197 3.2896682,2.9382191 0 0 0 3.231333,-2.937659 l -0.0085,-0.208925 A 3.2896682,2.9382191 0 0 0 21.52536,56.334167 l -0.792157,-1.85833 -0.733677,0.805116 a 3.2896682,2.9382191 0 0 0 -1.334588,-0.186246 3.2896682,2.9382191 0 0 0 -0.951817,0.173188 z" />
    <path
       style="opacity:0.994;fill:#4748ee;fill-opacity:0.569767;stroke:none;stroke-width:2.148;stroke-linejoin:round;stop-color:#000000"
       d="m 0.20251809,42.561993 -1.00355664,2.633947 a 4.4186591,4.4186591 0 0 0 -0.92862395,2.865975 4.4186591,4.4186591 0 0 0 4.4942971,4.260722 4.4186591,4.4186591 0 0 0 4.3403043,-4.417818 L 7.0935697,47.590626 A 4.4186591,4.4186591 0 0 0 6.2925861,45.356654 L 5.2285668,42.561993 4.2430971,43.772771 A 4.4186591,4.4186591 0 0 0 2.4504419,43.492685 4.4186591,4.4186591 0 0 0 1.1719673,43.753134 Z"
       id="path9965" />
    <path
       id="path10203"
       style="opacity:0.994;fill:#ed9917;fill-opacity:0.978405;stroke:none;stroke-width:2.148;stroke-linejoin:round;stop-color:#000000"
       d="m -20.81261,38.080259 -1.092957,2.841173 a 3.6208745,2.7324103 0 0 0 -0.743625,1.756481 3.6208745,2.7324103 0 0 0 3.682979,2.63498 3.6208745,2.7324103 0 0 0 3.556373,-2.732132 l -0.0093,-0.194305 a 3.6208745,2.7324103 0 0 0 -0.745172,-1.472777 l -1.089858,-2.83342 -1.439704,1.78077 a 3.6208745,2.7324103 0 0 0 -0.530201,-0.0088 3.6208745,2.7324103 0 0 0 -0.147794,0.0098 z" />
    <path
       id="path10089"
       style="opacity:0.994;fill:#7978db;fill-opacity:0.501661;stroke:none;stroke-width:8.11843;stroke-linejoin:round;stop-color:#000000"
       d="m -272.93359,-144.19727 -4.13086,10.73829 a 13.685195,10.32722 0 0 0 -2.81055,6.63867 13.685195,10.32722 0 0 0 13.91992,9.95898 13.685195,10.32722 0 0 0 13.44141,-10.32617 l -0.0352,-0.73438 a 13.685195,10.32722 0 0 0 -2.8164,-5.5664 l -4.11915,-10.70899 -5.4414,6.73047 a 13.685195,10.32722 0 0 0 -2.00391,-0.0332 13.685195,10.32722 0 0 0 -0.55859,0.0371 z"
       transform="matrix(0.26458333,0,0,0.26458333,52.433465,76.232453)" />
    <path
       id="path10457"
       style="fill:#2f5ed3;fill-opacity:0.395349;stroke:none;stroke-width:0.264583px;stroke-linecap:butt;stroke-linejoin:miter;stroke-opacity:1"
       d="m 15.90363,95.978935 -0.710551,4.738735 c -0.88241,1.24695 -1.671983,3.19663 -0.275436,4.79557 2.014841,2.30685 2.942813,3.05792 3.806486,3.10111 l 0.605648,0.03 v 0.0134 l 0.135392,-0.007 0.134876,0.007 v -0.0134 l 0.606164,-0.03 c 0.863673,-0.0432 1.791128,-0.79426 3.805969,-3.10111 1.436514,-1.6447 0.559976,-3.6576 -0.351399,-4.89789 l -0.695565,-4.636415 -2.904457,3.794686 c -1.019051,-0.0013 0,0 -1.019051,-0.0013 z"
       sodipodi:nodetypes="ccscccccccsccccc" />
    <path
       id="path10929"
       style="fill:#3f7b56;fill-opacity:0.460133;stroke:none;stroke-width:0.264583px;stroke-linecap:butt;stroke-linejoin:miter;stroke-opacity:1"
       d="m 80.444292,76.232453 -0.710551,4.738729 c -0.88241,1.246949 -1.671983,3.196627 -0.275436,4.795573 2.014841,2.306847 2.942813,3.057919 3.806486,3.101103 l 0.605648,0.02997 v 0.01344 l 0.135392,-0.0067 0.134876,0.0067 v -0.01344 l 0.606164,-0.02997 c 0.863673,-0.04318 1.791128,-0.794256 3.805969,-3.101103 1.436514,-1.644704 0.559976,-3.657602 -0.351399,-4.897892 l -0.695565,-4.63641 -2.409892,3.940837 c -2.597507,0.0447 0.0365,0.0292 -2.188698,0.052 z"
       sodipodi:nodetypes="ccscccccccsccccc" />
    <path
       id="path10931"
       style="fill:#3f7b56;fill-opacity:0.513289;stroke:none;stroke-width:0.264583px;stroke-linecap:butt;stroke-linejoin:miter;stroke-opacity:1"
       d="m 81.495513,76.232453 -0.710551,4.738729 c -0.882409,1.246949 -1.671983,3.196627 -0.275436,4.795573 2.014842,2.306847 2.942813,3.057919 3.806486,3.101103 l 0.605648,0.02997 v 0.01344 l 0.135392,-0.0067 0.134876,0.0067 v -0.01344 l 0.606165,-0.02997 c 0.863673,-0.04318 1.791128,-0.794256 3.805969,-3.101103 1.436513,-1.644704 0.559975,-3.657602 -0.3514,-4.897892 l -0.695565,-4.63641 -2.409892,3.940837 c -2.597506,0.0447 0.0365,0.0292 -2.188698,0.052 z"
       sodipodi:nodetypes="ccscccccccsccccc" />
    <path
       id="path15493"
       style="fill:#e54128;fill-opacity:0.383721;stroke:none;stroke-width:0.264583px;stroke-linecap:butt;stroke-linejoin:miter;stroke-opacity:1"
       d="m 16.984052,95.978935 -0.710551,4.738735 c -0.88241,1.24695 -1.671983,3.19663 -0.275436,4.79557 2.014841,2.30685 2.942813,3.05792 3.806486,3.10111 l 0.605648,0.03 v 0.0134 l 0.135392,-0.007 0.134876,0.007 v -0.0134 l 0.606164,-0.03 c 0.863673,-0.0432 1.791128,-0.79426 3.805969,-3.10111 1.436514,-1.6447 0.559976,-3.6576 -0.351399,-4.89789 l -0.695565,-4.636415 -2.904457,3.794686 c -1.019051,-0.0013 0,0 -1.019051,-0.0013 z"
       sodipodi:nodetypes="ccscccccccsccccc" />
    <path
       id="path15495"
       style="fill:#824e82;fill-opacity:0.988372;stroke:none;stroke-width:0.264583px;stroke-linecap:butt;stroke-linejoin:miter;stroke-opacity:1"
       d="m 16.818172,97.084817 -0.544671,3.632853 c -0.882409,1.24695 -1.671981,3.19663 -0.275434,4.79557 2.014842,2.30685 2.942812,3.05792 3.806486,3.10111 l 0.200504,0.01 0.201023,-0.01 c 0.863671,-0.0432 1.791126,-0.79426 3.805967,-3.10111 1.436516,-1.6447 0.559975,-3.6576 -0.351398,-4.89789 l -0.518316,-3.456119 -2.001427,2.614311 -1.019059,-0.0016 -0.03152,-0.03772 -0.02998,0.03927 -1.019059,-0.0016 z" />
    <path
       id="path15770"
       style="fill:#3331df;fill-opacity:0.991694;stroke:none;stroke-width:0.264583px;stroke-linecap:butt;stroke-linejoin:miter;stroke-opacity:1"
       d="m -4.2447839,97.438965 -0.710551,4.738735 c -0.88241,1.24695 -1.671983,3.19663 -0.275436,4.79557 2.014841,2.30685 2.942813,3.05792 3.806486,3.10111 l 0.60564799,0.03 v 0.0134 l 0.135392,-0.007 0.134876,0.007 v -0.0134 l 0.606164,-0.03 c 0.863673,-0.0432 1.79112801,-0.79426 3.80596901,-3.10111 1.436514,-1.6447 0.559976,-3.6576 -0.351399,-4.89789 l -0.695565,-4.636415 -2.90445701,3.794685 c -1.01905099,-10e-4 0,0 -1.01905099,-10e-4 z"
       sodipodi:nodetypes="ccscccccccsccccc" />
    <path
       id="path15772"
       style="fill:#dcf530;fill-opacity:0.629568;stroke:none;stroke-width:0.264583px;stroke-linecap:butt;stroke-linejoin:miter;stroke-opacity:1"
       d="m -3.1643619,97.438965 -0.710551,4.738735 c -0.88241,1.24695 -1.671983,3.19663 -0.275436,4.79557 2.014841,2.30685 2.942813,3.05792 3.80648599,3.10111 l 0.605648,0.03 v 0.0134 l 0.135392,-0.007 0.134876,0.007 v -0.0134 l 0.60616401,-0.03 c 0.863673,-0.0432 1.791128,-0.79426 3.805969,-3.10111 1.436514,-1.6447 0.559976,-3.6576 -0.351399,-4.89789 l -0.695565,-4.636415 -2.90445701,3.794685 c -1.019051,-10e-4 0,0 -1.019051,-10e-4 z"
       sodipodi:nodetypes="ccscccccccsccccc" />
    <path
       id="path17684"
       style="opacity:0.994;fill:#4748ee;fill-opacity:0.569767;stroke:none;stroke-width:1.51134;stroke-linejoin:round;stop-color:#000000"
       d="m 18.376861,56.169472 -0.747142,1.751463 a 3.2896682,2.9382191 0 0 0 -0.691356,1.90575 3.2896682,2.9382191 0 0 0 3.34598,2.833198 3.2896682,2.9382191 0 0 0 3.231334,-2.93766 l -0.0085,-0.208925 a 3.2896682,2.9382191 0 0 0 -0.596329,-1.485495 l -0.792156,-1.858331 -0.733677,0.805116 a 3.2896682,2.9382191 0 0 0 -1.334587,-0.186245 3.2896682,2.9382191 0 0 0 -0.951817,0.173187 z" />
    <path
       id="path17686"
       style="opacity:0.994;fill:#4748ee;fill-opacity:0.569767;stroke:none;stroke-width:1.51134;stroke-linejoin:round;stop-color:#000000"
       d="m 18.3346,54.475837 -0.747143,1.751462 a 3.2896682,2.9382191 0 0 0 -0.691355,1.905751 3.2896682,2.9382191 0 0 0 3.34598,2.833197 3.2896682,2.9382191 0 0 0 3.231333,-2.937659 l -0.0085,-0.208925 a 3.2896682,2.9382191 0 0 0 -0.596327,-1.485496 l -0.792157,-1.85833 -0.733677,0.805116 a 3.2896682,2.9382191 0 0 0 -1.334588,-0.186246 3.2896682,2.9382191 0 0 0 -0.951817,0.173188 z" />
    <path
       id="path17688"
       style="opacity:0.994;fill:#7978db;fill-opacity:0.501661;stroke:none;stroke-width:2.148;stroke-linejoin:round;stop-color:#000000"
       d="m 6.558728,31.597726 -1.0929567,2.841172 a 3.6208745,2.7324103 0 0 0 -0.7436247,1.756482 3.6208745,2.7324103 0 0 0 3.6829788,2.63498 3.6208745,2.7324103 0 0 0 3.5563726,-2.732132 l -0.0093,-0.194305 a 3.6208745,2.7324103 0 0 0 -0.745173,-1.472777 l -1.089858,-2.83342 -1.439704,1.78077 a 3.6208745,2.7324103 0 0 0 -0.5302012,-0.0088 3.6208745,2.7324103 0 0 0 -0.1477936,0.0098 z" />
    <path
       id="path17690"
       style="opacity:0.994;fill:#7978db;fill-opacity:0.501661;stroke:none;stroke-width:2.148;stroke-linejoin:round;stop-color:#000000"
       d="M 7.3143877,31.597726 6.221431,34.438898 a 3.6208745,2.7324103 0 0 0 -0.7436247,1.756482 3.6208745,2.7324103 0 0 0 3.6829788,2.63498 3.6208745,2.7324103 0 0 0 3.5563719,-2.732132 l -0.0093,-0.194305 a 3.6208745,2.7324103 0 0 0 -0.745173,-1.472777 l -1.089858,-2.83342 -1.4397033,1.78077 a 3.6208745,2.7324103 0 0 0 -0.5302012,-0.0088 3.6208745,2.7324103 0 0 0 -0.1477936,0.0098 z" />
    <path
       id="path17692"
       style="opacity:0.994;fill:#7978db;fill-opacity:0.501661;stroke:none;stroke-width:2.148;stroke-linejoin:round;stop-color:#000000"
       d="m 7.314387,31.597726 -1.0929567,2.841172 a 3.6208745,2.7324103 0 0 0 -0.7436247,1.756482 3.6208745,2.7324103 0 0 0 3.6829788,2.63498 3.6208745,2.7324103 0 0 0 3.5563726,-2.732132 l -0.0093,-0.194305 a 3.6208745,2.7324103 0 0 0 -0.745173,-1.472777 l -1.089858,-2.83342 -1.439704,1.78077 a 3.6208745,2.7324103 0 0 0 -0.5302012,-0.0088 3.6208745,2.7324103 0 0 0 -0.1477936,0.0098 z" />
    <path
       id="path17694"
       style="opacity:0.994;fill:#7978db;fill-opacity:0.501661;stroke:none;stroke-width:2.148;stroke-linejoin:round;stop-color:#000000"
       d="M 8.0700467,31.597726 6.97709,34.438898 a 3.6208745,2.7324103 0 0 0 -0.7436247,1.756482 3.6208745,2.7324103 0 0 0 3.6829788,2.63498 3.6208745,2.7324103 0 0 0 3.5563719,-2.732132 l -0.0093,-0.194305 a 3.6208745,2.7324103 0 0 0 -0.745173,-1.472777 l -1.089858,-2.83342 -1.439703,1.78077 a 3.6208745,2.7324103 0 0 0 -0.5302015,-0.0088 3.6208745,2.7324103 0 0 0 -0.1477936,0.0098 z" />
    <path
       id="path17696"
       style="fill:#3f7b56;fill-opacity:0.460133;stroke:none;stroke-width:0.264583px;stroke-linecap:butt;stroke-linejoin:miter;stroke-opacity:1"
       d="m 82.634337,76.232453 -0.710551,4.738729 c -0.88241,1.246949 -1.671983,3.196627 -0.275436,4.795573 2.014841,2.306847 2.942813,3.057919 3.806486,3.101103 l 0.605648,0.02997 v 0.01344 l 0.135392,-0.0067 0.134876,0.0067 v -0.01344 l 0.606164,-0.02997 c 0.863673,-0.04318 1.791128,-0.794256 3.805969,-3.101103 1.436514,-1.644704 0.559976,-3.657602 -0.351399,-4.897892 l -0.695565,-4.63641 -2.409892,3.940837 c -2.597507,0.0447 0.0365,0.0292 -2.188698,0.052 z"
       sodipodi:nodetypes="ccscccccccsccccc" />
    <path
       id="path17698"
       style="fill:#3f7b56;fill-opacity:0.513289;stroke:none;stroke-width:0.264583px;stroke-linecap:butt;stroke-linejoin:miter;stroke-opacity:1"
       d="m 83.685558,76.232453 -0.710551,4.738729 c -0.882409,1.246949 -1.671983,3.196627 -0.275436,4.795573 2.014842,2.306847 2.942813,3.057919 3.806486,3.101103 l 0.605648,0.02997 v 0.01344 l 0.135392,-0.0067 0.134876,0.0067 v -0.01344 l 0.606165,-0.02997 c 0.863673,-0.04318 1.791128,-0.794256 3.805969,-3.101103 1.436513,-1.644704 0.559975,-3.657602 -0.3514,-4.897892 l -0.695565,-4.63641 -2.409892,3.940837 c -2.597506,0.0447 0.0365,0.0292 -2.188698,0.052 z"
       sodipodi:nodetypes="ccscccccccsccccc" />
    <path
       id="path17780"
       style="fill:#086c5b;fill-opacity:0.629568;stroke:none;stroke-width:0.264583px;stroke-linecap:butt;stroke-linejoin:miter;stroke-opacity:1"
       d="m -27.342459,96.621348 -0.710551,4.738732 c -0.88241,1.24695 -1.671983,3.19663 -0.275436,4.79557 2.014841,2.30685 2.942813,3.05792 3.806486,3.10111 l 0.605648,0.03 v 0.0134 l 0.135392,-0.007 0.134876,0.007 v -0.0134 l 0.606164,-0.03 c 0.863673,-0.0432 1.791128,-0.79426 3.805969,-3.10111 1.436514,-1.6447 0.559976,-3.6576 -0.351399,-4.89789 l -0.695565,-4.636412 -2.904457,3.794682 c -1.019051,-0.001 0,0 -1.019051,-0.001 z"
       sodipodi:nodetypes="ccscccccccsccccc" />
    <path
       id="path18270"
       style="fill:#086c5b;fill-opacity:0.629568;stroke:none;stroke-width:0.264583px;stroke-linecap:butt;stroke-linejoin:miter;stroke-opacity:1"
       d="m -28.802489,96.621348 -0.710551,4.738732 c -0.88241,1.24695 -1.671983,3.19663 -0.275436,4.79557 2.014841,2.30685 2.942813,3.05792 3.806486,3.10111 l 0.605648,0.03 v 0.0134 l 0.135392,-0.007 0.134876,0.007 v -0.0134 l 0.606164,-0.03 c 0.863673,-0.0432 1.791128,-0.79426 3.805969,-3.10111 1.436514,-1.6447 0.559976,-3.6576 -0.351399,-4.89789 l -0.695565,-4.636412 -2.904457,3.794682 c -1.019051,-0.001 0,0 -1.019051,-0.001 z"
       sodipodi:nodetypes="ccscccccccsccccc" />
    <path
       id="path18272"
       style="fill:#086c5b;fill-opacity:0.629568;stroke:none;stroke-width:0.264583px;stroke-linecap:butt;stroke-linejoin:miter;stroke-opacity:1"
       d="m -30.379321,96.621348 -0.710551,4.738732 c -0.88241,1.24695 -1.671983,3.19663 -0.275436,4.79557 2.014841,2.30685 2.942813,3.05792 3.806486,3.10111 l 0.605648,0.03 v 0.0134 l 0.135392,-0.007 0.134876,0.007 v -0.0134 l 0.606164,-0.03 c 0.863673,-0.0432 1.791128,-0.79426 3.805969,-3.10111 1.436514,-1.6447 0.559976,-3.6576 -0.351399,-4.89789 l -0.695565,-4.636412 -2.904457,3.794682 c -1.019051,-0.001 0,0 -1.019051,-0.001 z"
       sodipodi:nodetypes="ccscccccccsccccc" />
    <path
       id="path18274"
       style="fill:#086c5b;fill-opacity:0.629568;stroke:none;stroke-width:0.264583px;stroke-linecap:butt;stroke-linejoin:miter;stroke-opacity:1"
       d="m -31.839351,96.621348 -0.710551,4.738732 c -0.88241,1.24695 -1.671983,3.19663 -0.275436,4.79557 2.014841,2.30685 2.942813,3.05792 3.806486,3.10111 l 0.605648,0.03 v 0.0134 l 0.135392,-0.007 0.134876,0.007 v -0.0134 l 0.606164,-0.03 c 0.863673,-0.0432 1.791128,-0.79426 3.805969,-3.10111 1.436514,-1.6447 0.559976,-3.6576 -0.351399,-4.89789 l -0.695565,-4.636412 -2.904457,3.794682 c -1.019051,-0.001 0,0 -1.019051,-0.001 z"
       sodipodi:nodetypes="ccscccccccsccccc" />
    <path
       id="path18276"
       style="fill:#086c5b;fill-opacity:0.629568;stroke:none;stroke-width:0.264583px;stroke-linecap:butt;stroke-linejoin:miter;stroke-opacity:1"
       d="m -30.667392,138.08957 -0.710551,-4.73874 c -0.88241,-1.24695 -1.671983,-3.19663 -0.275436,-4.79557 2.014841,-2.30685 2.942813,-3.05792 3.806486,-3.10111 l 0.605648,-0.03 v -0.0134 l 0.135392,0.007 0.134876,-0.007 v 0.0134 l 0.606164,0.03 c 0.863673,0.0432 1.791128,0.79426 3.805969,3.10111 1.436514,1.6447 0.559976,3.6576 -0.351399,4.89789 l -0.695565,4.63642 -2.904457,-3.79469 c -1.019051,0.001 0,0 -1.019051,0.001 z"
       sodipodi:nodetypes="ccscccccccsccccc" />
    <path
       id="path18278"
       style="fill:#086c5b;fill-opacity:0.629568;stroke:none;stroke-width:0.264583px;stroke-linecap:butt;stroke-linejoin:miter;stroke-opacity:1"
       d="m -32.127422,138.08957 -0.710551,-4.73874 c -0.88241,-1.24695 -1.671983,-3.19663 -0.275436,-4.79557 2.014841,-2.30685 2.942813,-3.05792 3.806486,-3.10111 l 0.605648,-0.03 v -0.0134 l 0.135392,0.007 0.134876,-0.007 v 0.0134 l 0.606164,0.03 c 0.863673,0.0432 1.791128,0.79426 3.805969,3.10111 1.436514,1.6447 0.559976,3.6576 -0.351399,4.89789 l -0.695565,4.63642 -2.904457,-3.79469 c -1.019051,0.001 0,0 -1.019051,0.001 z"
       sodipodi:nodetypes="ccscccccccsccccc" />
    <path
       id="path18280"
       style="fill:#086c5b;fill-opacity:0.629568;stroke:none;stroke-width:0.264583px;stroke-linecap:butt;stroke-linejoin:miter;stroke-opacity:1"
       d="m -30.379321,119.74822 -0.710551,4.73874 c -0.88241,1.24695 -1.671983,3.19663 -0.275436,4.79557 2.014841,2.30685 2.942813,3.05792 3.806486,3.10111 l 0.605648,0.03 v 0.0134 l 0.135392,-0.007 0.134876,0.007 v -0.0134 l 0.606164,-0.03 c 0.863673,-0.0432 1.791128,-0.79426 3.805969,-3.10111 1.436514,-1.6447 0.559976,-3.6576 -0.351399,-4.89789 l -0.695565,-4.63642 -2.904457,3.79469 c -1.019051,-0.001 0,0 -1.019051,-0.001 z"
       sodipodi:nodetypes="ccscccccccsccccc" />
    <path
       id="path18282"
       style="fill:#086c5b;fill-opacity:0.629568;stroke:none;stroke-width:0.264583px;stroke-linecap:butt;stroke-linejoin:miter;stroke-opacity:1"
       d="m -31.839351,119.74822 -0.710551,4.73874 c -0.88241,1.24695 -1.671983,3.19663 -0.275436,4.79557 2.014841,2.30685 2.942813,3.05792 3.806486,3.10111 l 0.605648,0.03 v 0.0134 l 0.135392,-0.007 0.134876,0.007 v -0.0134 l 0.606164,-0.03 c 0.863673,-0.0432 1.791128,-0.79426 3.805969,-3.10111 1.436514,-1.6447 0.559976,-3.6576 -0.351399,-4.89789 l -0.695565,-4.63642 -2.904457,3.79469 c -1.019051,-0.001 0,0 -1.019051,-0.001 z"
       sodipodi:nodetypes="ccscccccccsccccc" />
    <path
       id="path18284"
       style="fill:#086c5b;fill-opacity:0.629568;stroke:none;stroke-width:0.264583px;stroke-linecap:butt;stroke-linejoin:miter;stroke-opacity:1"
       d="m -64.907558,133.58794 v 0.0134 l -0.605648,0.03 c -0.863674,0.0432 -1.791644,0.79425 -3.806486,3.1011 -1.396547,1.59895 -0.606975,3.54863 0.275437,4.79558 l 0.710549,4.73872 3.137794,-3.79356 1.019059,-0.001 2.904733,3.7946 0.695563,-4.63641 c 0.295249,-0.4018 0.586372,-0.88506 0.796851,-1.41025 0.192482,0.48129 0.452729,0.92753 0.721921,1.30793 l 0.710549,4.73873 3.13831,-3.79357 1.019059,-0.001 2.904217,3.7946 0.695563,-4.63641 c 0.911376,-1.24029 1.787914,-3.25319 0.351401,-4.89789 -2.014841,-2.30685 -2.942296,-3.0579 -3.80597,-3.1011 l -0.606163,-0.03 v -0.0135 l -0.134877,0.007 -0.135392,-0.007 v 0.0135 l -0.605647,0.03 c -0.863674,0.0432 -1.791645,0.79425 -3.806487,3.1011 -0.185909,0.21285 -0.332602,0.43194 -0.445968,0.65474 -0.113382,-0.2228 -0.25999,-0.44181 -0.445966,-0.65474 -2.014842,-2.30685 -2.942296,-3.0579 -3.80597,-3.1011 l -0.606166,-0.03 v -0.0135 l -0.134874,0.007 z" />
    <path
       id="path18288"
       style="fill:#086c5b;fill-opacity:0.629568;stroke:none;stroke-width:0.999999px;stroke-linecap:butt;stroke-linejoin:miter;stroke-opacity:1"
       d="m -225.14258,160.05469 -2.68554,17.91015 c -3.3351,4.71289 -6.31931,12.08177 -1.04102,18.125 7.61515,8.71881 11.12244,11.55747 14.38672,11.72071 l 2.28906,0.11328 v 0.0508 l 0.51172,-0.0273 0.50976,0.0273 v -0.0508 l 2.29102,-0.11328 c 3.26428,-0.16328 6.76962,-3.0019 14.38477,-11.72071 0.70259,-0.80441 1.25709,-1.63292 1.68554,-2.47461 0.42847,0.84207 0.9829,1.67014 1.68555,2.47461 7.61515,8.71881 11.12244,11.55747 14.38672,11.72071 l 2.28906,0.11328 v 0.0508 l 0.51172,-0.0273 0.50977,0.0273 v -0.0508 l 2.29101,-0.11328 c 3.26428,-0.16328 6.76962,-3.0019 14.38477,-11.72071 5.42934,-6.21619 2.11644,-13.824 -1.32813,-18.51172 l -2.6289,-17.52343 -10.97657,14.34179 -3.85156,-0.004 -11.86133,-14.33789 -2.68554,17.91015 c -1.01766,1.43807 -2.00098,3.12384 -2.72852,4.94336 -0.79553,-1.9852 -1.8957,-3.81129 -3.01172,-5.33008 l -2.6289,-17.52343 -10.97852,14.34179 -3.85156,-0.004 z"
       transform="matrix(0.26458333,0,0,0.26458333,52.433465,76.232453)" />
    <path
       id="path18622"
       style="fill:#407c56;fill-opacity:0.759136;stroke:none;stroke-width:0.264583px;stroke-linecap:butt;stroke-linejoin:miter;stroke-opacity:1"
       d="m 63.008052,127.62551 -0.710551,4.73873 c -0.88241,1.24695 -1.671983,3.19663 -0.275436,4.79557 2.014841,2.30685 2.942813,3.05792 3.806486,3.10111 l 0.605648,0.03 v 0.0134 l 0.135392,-0.007 0.134876,0.007 v -0.0134 l 0.606164,-0.03 c 0.863673,-0.0432 1.791128,-0.79426 3.805969,-3.10111 1.436514,-1.6447 0.559976,-3.6576 -0.351399,-4.89789 l -0.695565,-4.63641 -1.636076,2.90422 c -1.001088,-0.31346 -1.87172,-0.26149 -1.87172,-0.26149 0,0 -0.0638,-0.004 -0.176734,-0.004 -0.309201,0.002 -0.986838,0.0384 -1.731677,0.28061 z" />
    <path
       id="path18624"
       style="fill:#407c56;fill-opacity:0.759136;stroke:none;stroke-width:0.264583px;stroke-linecap:butt;stroke-linejoin:miter;stroke-opacity:1"
       d="m 63.008052,144.1588 -0.710551,-4.73873 c -0.88241,-1.24695 -1.671983,-3.19663 -0.275436,-4.79557 2.014841,-2.30685 2.942813,-3.05792 3.806486,-3.10111 l 0.605648,-0.03 v -0.0134 l 0.135392,0.007 0.134876,-0.007 v 0.0134 l 0.606164,0.03 c 0.863673,0.0432 1.791128,0.79426 3.805969,3.10111 1.436514,1.6447 0.559976,3.6576 -0.351399,4.89789 l -0.695565,4.63641 -1.636076,-2.90422 c -1.001088,0.31346 -1.87172,0.26149 -1.87172,0.26149 0,0 -0.0638,0.004 -0.176734,0.004 -0.309201,-0.002 -0.986838,-0.0384 -1.731677,-0.28061 z" />
    <path
       id="path18626"
       style="fill:#407c56;fill-opacity:0.759136;stroke:none;stroke-width:0.264583px;stroke-linecap:butt;stroke-linejoin:miter;stroke-opacity:1"
       d="m 66.278519,127.62551 -0.710551,4.73873 c -0.88241,1.24695 -1.671983,3.19663 -0.275436,4.79557 2.014841,2.30685 2.942813,3.05792 3.806486,3.10111 l 0.605648,0.03 v 0.0134 l 0.135392,-0.007 0.134876,0.007 v -0.0134 l 0.606164,-0.03 c 0.863673,-0.0432 1.791128,-0.79426 3.805969,-3.10111 1.436514,-1.6447 0.559976,-3.6576 -0.351399,-4.89789 l -0.695565,-4.63641 -1.636076,2.90422 c -1.001088,-0.31346 -1.87172,-0.26149 -1.87172,-0.26149 0,0 -0.0638,-0.004 -0.176734,-0.004 -0.309201,0.002 -0.986838,0.0384 -1.731677,0.28061 z" />
    <path
       id="path18628"
       style="fill:#407c56;fill-opacity:0.759136;stroke:none;stroke-width:0.264583px;stroke-linecap:butt;stroke-linejoin:miter;stroke-opacity:1"
       d="m 66.278519,144.1588 -0.710551,-4.73873 c -0.88241,-1.24695 -1.671983,-3.19663 -0.275436,-4.79557 2.014841,-2.30685 2.942813,-3.05792 3.806486,-3.10111 l 0.605648,-0.03 v -0.0134 l 0.135392,0.007 0.134876,-0.007 v 0.0134 l 0.606164,0.03 c 0.863673,0.0432 1.791128,0.79426 3.805969,3.10111 1.436514,1.6447 0.559976,3.6576 -0.351399,4.89789 l -0.695565,4.63641 -1.636076,-2.90422 c -1.001088,0.31346 -1.87172,0.26149 -1.87172,0.26149 0,0 -0.0638,0.004 -0.176734,0.004 -0.309201,-0.002 -0.986838,-0.0384 -1.731677,-0.28061 z" />
    <path
       id="path18814"
       style="fill:#086c5b;fill-opacity:0.749169;stroke:none;stroke-width:0.1;stroke-linecap:butt;stroke-linejoin:miter;stroke-miterlimit:4;stroke-dasharray:none;stroke-opacity:0.74902"
       d="m 14.472022,139.13766 -1.290341,5.0276 c -0.508349,1.86639 -0.824517,2.90776 0.41513,4.5067 1.788474,2.30685 2.612191,3.05791 3.37883,3.1011 l 0.537606,0.03 v 0.0134 l 0.120181,-0.007 0.119721,0.007 v -0.0134 l 0.538064,-0.03 c 0.766639,-0.0432 1.589898,-0.79425 3.378372,-3.1011 0.177031,-0.22834 0.327723,-0.45475 0.455037,-0.68006 0.119954,0.2174 0.269084,0.44257 0.453203,0.68006 1.788477,2.30685 2.612192,3.05791 3.378832,3.1011 l 0.537604,0.03 v 0.0134 l 0.120181,-0.007 0.119723,0.007 v -0.0134 l 0.538062,-0.03 c 0.766641,-0.0432 1.589898,-0.79425 3.378374,-3.1011 1.275124,-1.6447 1.211849,-3.18284 0.512834,-5.02192 l -1.442173,-4.51238 -2.577931,3.7946 -0.904569,-0.001 -2.785726,-3.79356 -1.204104,4.6917 c -0.02146,-0.0595 -0.04367,-0.11922 -0.06651,-0.17932 l -1.442175,-4.51238 -2.57793,3.7946 -0.904568,-0.001 z" />
    <path
       id="path19751"
       style="fill:#086c5b;fill-opacity:0.74902;fill-rule:nonzero;stroke:none;stroke-width:0.149;stroke-linecap:butt;stroke-linejoin:miter;stroke-miterlimit:4;stroke-dasharray:none;stroke-opacity:1"
       d="m 17.513247,144.07224 v 0.0134 l -0.537606,0.03 c -0.766639,0.0432 -1.590356,0.79425 -3.37883,3.1011 -1.239647,1.59894 -0.923479,2.64031 -0.41513,4.5067 l 1.290341,5.0276 2.785726,-3.79356 0.904568,-0.001 2.57793,3.7946 1.442175,-4.51238 c 0.02284,-0.0601 0.04505,-0.11986 0.06651,-0.17932 l 1.204104,4.6917 2.785726,-3.79356 0.904569,-10e-4 2.577931,3.7946 1.442173,-4.51238 c 0.699015,-1.83909 0.76229,-3.37722 -0.512834,-5.02192 -1.788476,-2.30685 -2.611733,-3.0579 -3.378374,-3.1011 l -0.538062,-0.03 v -0.0134 l -0.119723,0.007 -0.120181,-0.007 v 0.0134 l -0.537604,0.03 c -0.76664,0.0432 -1.590355,0.79425 -3.378832,3.1011 -0.184119,0.23748 -0.333249,0.46265 -0.453203,0.68006 -0.12734,-0.22538 -0.277954,-0.45165 -0.455037,-0.68006 -1.788474,-2.30685 -2.611733,-3.0579 -3.378372,-3.1011 l -0.538064,-0.03 v -0.0134 l -0.119721,0.007 z" />
    <path
       id="path30979"
       style="fill:none;fill-opacity:0.749169;stroke:#086c5b;stroke-width:0.3;stroke-linecap:butt;stroke-linejoin:miter;stroke-miterlimit:4;stroke-dasharray:none;stroke-opacity:0.843854"
       d="m 17.513534,144.16734 v 0.0134 l -0.537952,0.03 c -0.766639,0.0432 -1.590131,0.79425 -3.378605,3.1011 -0.197515,0.25477 -0.355003,0.49556 -0.47904,0.72761 0.124037,0.23204 0.281525,0.47284 0.47904,0.7276 1.788474,2.30685 2.611966,3.05791 3.378605,3.1011 l 0.537952,0.03 v 0.0134 l 0.119889,-0.007 0.11989,0.007 v -0.0134 l 0.537951,-0.03 c 0.766639,-0.0432 1.590131,-0.79425 3.378605,-3.1011 0.177031,-0.22834 0.327439,-0.45475 0.454753,-0.68006 0.119954,0.2174 0.269083,0.44257 0.453202,0.68006 1.788477,2.30685 2.611965,3.05791 3.378605,3.1011 l 0.537952,0.03 v 0.0134 l 0.119889,-0.007 0.11989,0.007 v -0.0134 l 0.537951,-0.03 c 0.766641,-0.0432 1.590129,-0.79425 3.378605,-3.1011 0.189485,-0.2444 0.348427,-0.48657 0.481108,-0.7276 -0.13267,-0.24101 -0.291648,-0.48323 -0.481108,-0.72761 -1.788476,-2.30685 -2.611964,-3.0579 -3.378605,-3.1011 l -0.537951,-0.03 v -0.0134 l -0.11989,0.007 -0.119889,-0.007 v 0.0134 l -0.537952,0.03 c -0.76664,0.0432 -1.590128,0.79425 -3.378605,3.1011 -0.184119,0.23748 -0.333248,0.46265 -0.453202,0.68006 -0.12734,-0.22538 -0.27767,-0.45165 -0.454753,-0.68006 -1.788474,-2.30685 -2.611966,-3.0579 -3.378605,-3.1011 l -0.537951,-0.03 v -0.0134 l -0.11989,0.007 z" />
    <path
       style="fill:none;stroke:#000000;stroke-width:0.186972px;stroke-linecap:butt;stroke-linejoin:miter;stroke-opacity:1"
       d="m -55.410522,65.960145 0.465133,-9.101913 5.071413,6.718624 -5.175736,-2.787685"
       id="path927" />
    <path
       style="fill:none;stroke:#000000;stroke-width:0.169;stroke-linecap:butt;stroke-linejoin:miter;stroke-miterlimit:4;stroke-dasharray:none;stroke-opacity:1"
       d="m -49.580411,69.817392 c -1.080843,-1.289108 -1.776139,-1.13123 -2.43373,-0.467711 -1.389359,1.401878 -0.825784,3.819222 0.353047,4.238049 1.5258,0.542102 2.299023,-1.239486 2.299023,-1.239486"
       id="path929"
       sodipodi:nodetypes="cssc" />
    <path
       style="fill:none;stroke:#000000;stroke-width:0.264583px;stroke-linecap:butt;stroke-linejoin:miter;stroke-opacity:1"
       d="m -35.752347,65.220283 c -0.700814,-3.036863 -17.384283,-3.122716 -19.622804,0.233605 -2.269104,3.402174 0.116802,12.14745 3.504073,14.483497 3.999327,2.758155 7.708956,3.620873 13.198671,-0.934419 3.689735,-3.061693 3.270467,-10.979426 3.270467,-10.979426 l -16.469139,-0.116801"
       id="path1401"
       sodipodi:nodetypes="cssscc" />
    <path
       style="fill:none;stroke:#000000;stroke-width:0.174;stroke-linecap:butt;stroke-linejoin:miter;stroke-miterlimit:4;stroke-dasharray:none;stroke-opacity:1"
       d="m -38.46205,68.958289 c -1.262403,-0.998631 -1.986298,-0.608388 -2.624996,0.298597 -1.349438,1.916277 -0.535268,4.26261 0.753387,4.319123 1.667946,0.07315 2.329481,-2.040884 2.329481,-2.040884"
       id="path2713"
       sodipodi:nodetypes="cssc" />
    <path
       style="fill:none;stroke:#000000;stroke-width:0.22;stroke-linecap:butt;stroke-linejoin:miter;stroke-miterlimit:4;stroke-dasharray:none;stroke-opacity:1"
       d="M -45.614008,80.803752 V 74.53957 h -3.226888 6.220172"
       id="path3041"
       sodipodi:nodetypes="cccc" />
    <path
       style="fill:none;stroke:#000000;stroke-width:0.194605px;stroke-linecap:butt;stroke-linejoin:miter;stroke-opacity:1"
       d="m -42.305667,63.183597 6.093951,-6.745326 0.459369,8.252845 -3.002821,-5.281292"
       id="path3123" />
    <path
       id="path961"
       style="fill:#178889;fill-opacity:0.73034334;stroke:none;stroke-width:0.1;stroke-linecap:butt;stroke-linejoin:miter;stroke-miterlimit:4;stroke-dasharray:none;stroke-opacity:0.74902"
       d="m 13.011992,163.08215 -1.290341,5.0276 c -0.508349,1.86639 -0.824517,2.90776 0.41513,4.5067 1.788474,2.30685 2.612191,3.05791 3.37883,3.1011 l 0.537606,0.03 v 0.0134 l 0.120181,-0.007 0.119721,0.007 v -0.0134 l 0.538064,-0.03 c 0.766639,-0.0432 1.589898,-0.79425 3.378372,-3.1011 0.177031,-0.22834 0.327723,-0.45475 0.455037,-0.68006 0.119954,0.2174 0.269084,0.44257 0.453203,0.68006 1.788477,2.30685 2.612192,3.05791 3.378832,3.1011 l 0.537604,0.03 v 0.0134 l 0.120181,-0.007 0.119723,0.007 v -0.0134 l 0.538062,-0.03 c 0.766641,-0.0432 1.589898,-0.79425 3.378374,-3.1011 1.275124,-1.6447 1.211849,-3.18284 0.512834,-5.02192 l -1.442173,-4.51238 -2.577931,3.7946 -0.904569,-10e-4 -2.785726,-3.79356 -1.204104,4.6917 c -0.02146,-0.0595 -0.04367,-0.11922 -0.06651,-0.17932 l -1.442175,-4.51238 -2.57793,3.7946 -0.904568,-0.001 z" />
    <path
       id="path963"
       style="fill:#178889;fill-opacity:0.73034334;fill-rule:nonzero;stroke:none;stroke-width:0.149;stroke-linecap:butt;stroke-linejoin:miter;stroke-miterlimit:4;stroke-dasharray:none;stroke-opacity:1"
       d="m 16.053217,166.88219 v 0.0134 l -0.537606,0.03 c -0.766639,0.0432 -1.590356,0.79425 -3.37883,3.1011 -1.239647,1.59894 -0.923479,2.64031 -0.41513,4.5067 l 1.290341,5.0276 2.785726,-3.79356 0.904568,-10e-4 2.57793,3.7946 1.442175,-4.51238 c 0.02284,-0.0601 0.04505,-0.11986 0.06651,-0.17932 l 1.204104,4.6917 2.785726,-3.79356 0.904569,-0.001 2.577931,3.7946 1.442173,-4.51238 c 0.699015,-1.83909 0.76229,-3.37722 -0.512834,-5.02192 -1.788476,-2.30685 -2.611733,-3.0579 -3.378374,-3.1011 l -0.538062,-0.03 v -0.0134 l -0.119723,0.007 -0.120181,-0.007 v 0.0134 l -0.537604,0.03 c -0.76664,0.0432 -1.590355,0.79425 -3.378832,3.1011 -0.184119,0.23748 -0.333249,0.46265 -0.453203,0.68006 -0.12734,-0.22538 -0.277954,-0.45165 -0.455037,-0.68006 -1.788474,-2.30685 -2.611733,-3.0579 -3.378372,-3.1011 l -0.538064,-0.03 v -0.0134 l -0.119721,0.007 z" />
    <path
       id="path1098"
       style="fill:#178889;fill-opacity:0.73034334;stroke:none;stroke-width:0.1;stroke-linecap:butt;stroke-linejoin:miter;stroke-miterlimit:4;stroke-dasharray:none;stroke-opacity:0.74902"
       d="m 16.053217,166.86903 v 0.0134 l -0.537951,0.03 c -0.76664,0.0432 -1.590132,0.79425 -3.378606,3.1011 -0.3628,0.46795 -0.591455,0.88792 -0.72192,1.29501 0.130491,0.40695 0.35926,0.82724 0.72192,1.29501 1.788474,2.30685 2.611966,3.05791 3.378606,3.1011 l 0.537951,0.03 v 0.0129 l 0.119888,-0.007 0.119891,0.007 v -0.0129 l 0.537951,-0.03 c 0.76664,-0.0432 1.590132,-0.79425 3.378604,-3.1011 0.177033,-0.22834 0.327441,-0.45475 0.454753,-0.68006 0.119954,0.2174 0.269084,0.44257 0.453202,0.68006 1.788478,2.30685 2.612483,3.05791 3.379124,3.1011 l 0.537434,0.03 v 0.0129 l 0.120407,-0.007 0.119372,0.007 v -0.0129 l 0.538467,-0.03 c 0.766643,-0.0432 1.589614,-0.79425 3.378089,-3.1011 0.338481,-0.43658 0.581649,-0.86582 0.744659,-1.29501 -0.16301,-0.42919 -0.406178,-0.85843 -0.744659,-1.29501 -1.788475,-2.30685 -2.611446,-3.0579 -3.378089,-3.1011 l -0.538467,-0.03 v -0.0134 l -0.119372,0.007 -0.120407,-0.007 v 0.0134 l -0.537434,0.03 c -0.766641,0.0432 -1.590646,0.79425 -3.379124,3.1011 -0.184118,0.23748 -0.333248,0.46265 -0.453202,0.68006 -0.127339,-0.22538 -0.27767,-0.45165 -0.454753,-0.68006 -1.788472,-2.30685 -2.611964,-3.0579 -3.378604,-3.1011 l -0.537951,-0.03 v -0.0134 l -0.119891,0.007 z" />
    <path
       id="path965"
       style="fill:#086c5b;fill-opacity:0.74902;stroke:none;stroke-width:0.3;stroke-linecap:butt;stroke-linejoin:miter;stroke-miterlimit:4;stroke-dasharray:none;stroke-opacity:0.843854"
       d="m 43.920595,160.11087 v 0.0134 l -0.537952,0.03 c -0.766639,0.0432 -1.590131,0.79425 -3.378605,3.1011 -0.197515,0.25477 -0.355003,0.49556 -0.47904,0.72761 0.124037,0.23204 0.281525,0.47284 0.47904,0.7276 1.788474,2.30685 2.611966,3.05791 3.378605,3.1011 l 0.537952,0.03 v 0.0134 l 0.119889,-0.007 0.11989,0.007 v -0.0134 l 0.537951,-0.03 c 0.766639,-0.0432 1.590131,-0.79425 3.378605,-3.1011 0.177031,-0.22834 0.327439,-0.45475 0.454753,-0.68006 0.119954,0.2174 0.269083,0.44257 0.453202,0.68006 1.788477,2.30685 2.611965,3.05791 3.378605,3.1011 l 0.537952,0.03 v 0.0134 l 0.119889,-0.007 0.11989,0.007 v -0.0134 l 0.537951,-0.03 c 0.766641,-0.0432 1.590129,-0.79425 3.378605,-3.1011 0.189485,-0.2444 0.348427,-0.48657 0.481108,-0.7276 -0.13267,-0.24101 -0.291648,-0.48323 -0.481108,-0.72761 -1.788476,-2.30685 -2.611964,-3.0579 -3.378605,-3.1011 l -0.537951,-0.03 v -0.0134 l -0.11989,0.007 -0.119889,-0.007 v 0.0134 l -0.537952,0.03 c -0.76664,0.0432 -1.590128,0.79425 -3.378605,3.1011 -0.184119,0.23748 -0.333248,0.46265 -0.453202,0.68006 -0.12734,-0.22538 -0.27767,-0.45165 -0.454753,-0.68006 -1.788474,-2.30685 -2.611966,-3.0579 -3.378605,-3.1011 l -0.537951,-0.03 v -0.0134 l -0.11989,0.007 z" />
    <path
       id="path1139"
       style="fill:#407c56;fill-opacity:0.759136;stroke:none;stroke-width:0.999999px;stroke-linecap:butt;stroke-linejoin:miter;stroke-opacity:1"
       d="m 193.37305,-96.554688 -2.68555,17.910157 c -3.33509,4.712882 -6.3193,12.081762 -1.04102,18.125 1.41415,1.619093 2.68623,3.033514 3.8418,4.267578 1.1557,-1.234281 2.4273,-2.648079 3.8418,-4.267578 5.42934,-6.216189 2.11644,-13.824009 -1.32813,-18.511719 z"
       transform="matrix(0.26458333,0,0,0.26458333,12.370241,138.63059)"
       clip-path="url(#clipPath1341)" />
    <path
       id="path1345"
       style="fill:#cc7c1f;fill-opacity:0.759136;stroke:none;stroke-width:0.999999px;stroke-linecap:butt;stroke-linejoin:miter;stroke-opacity:1"
       d="m 193.37305,-96.554688 -2.68555,17.910157 c -3.33509,4.712882 -6.3193,12.081762 -1.04102,18.125 1.41415,1.619093 2.68623,3.033514 3.8418,4.267578 1.1557,-1.234281 2.4273,-2.648079 3.8418,-4.267578 5.42934,-6.216189 2.11644,-13.824009 -1.32813,-18.511719 z"
       transform="matrix(0.26458333,0,0,0.10555655,-7.6029687,125.36334)"
       clip-path="url(#clipPath1341)" />
    <path
       id="path1402"
       style="fill:#cc7c1f;fill-opacity:0.759136;stroke:none;stroke-width:0.999999px;stroke-linecap:butt;stroke-linejoin:miter;stroke-opacity:1"
       d="m 193.37305,-96.554688 -2.68555,17.910157 c -3.33509,4.712882 -6.3193,12.081762 -1.04102,18.125 1.41415,1.619093 2.68623,3.033514 3.8418,4.267578 1.1557,-1.234281 2.4273,-2.648079 3.8418,-4.267578 5.42934,-6.216189 2.11644,-13.824009 -1.32813,-18.511719 z"
       transform="matrix(0.26458333,0,0,-0.10555655,-7.6029687,113.48782)"
       clip-path="url(#clipPath1341)" />
    <g
       id="g1520"
       clip-path="url(#clipPath1522)">
      <path
         id="path1404"
         style="fill:#086c5b;fill-opacity:0.629568;stroke:none;stroke-width:0.264583px;stroke-linecap:butt;stroke-linejoin:miter;stroke-opacity:1"
         d="m -33.24098,140.48065 -0.710551,4.73873 c -0.88241,1.24695 -1.671983,3.19663 -0.275436,4.79557 2.014841,2.30685 2.942813,3.05792 3.806486,3.10111 l 0.605648,0.03 v 0.0134 l 0.135392,-0.007 0.134876,0.007 v -0.0134 l 0.606164,-0.03 c 0.863673,-0.0432 1.791128,-0.79426 3.805969,-3.10111 1.436514,-1.6447 0.559976,-3.6576 -0.351399,-4.89789 l -0.695565,-4.63641 -2.904457,3.79468 c -1.019051,-0.001 0,0 -1.019051,-0.001 z"
         sodipodi:nodetypes="ccscccccccsccccc" />
      <path
         id="path1406"
         style="fill:#086c5b;fill-opacity:0.629568;stroke:none;stroke-width:0.264583px;stroke-linecap:butt;stroke-linejoin:miter;stroke-opacity:1"
         d="m -24.77328,140.37833 -0.710551,4.73873 c -0.88241,1.24695 -1.671983,3.19663 -0.275436,4.79557 2.014841,2.30685 2.942813,3.05792 3.806486,3.10111 l 0.605648,0.03 v 0.0134 l 0.135392,-0.007 0.134876,0.007 v -0.0134 l 0.606164,-0.03 c 0.863673,-0.0432 1.791128,-0.79426 3.805969,-3.10111 1.436514,-1.6447 0.559976,-3.6576 -0.351399,-4.89789 l -0.695565,-4.63641 -2.904457,3.79468 c -1.019051,-0.001 0,0 -1.019051,-0.001 z"
         sodipodi:nodetypes="ccscccccccsccccc" />
      <path
         id="path1408"
         style="fill:#086c5b;fill-opacity:0.629568;stroke:none;stroke-width:0.264583px;stroke-linecap:butt;stroke-linejoin:miter;stroke-opacity:1"
         d="m -33.24098,160.18296 -0.710551,-4.73873 c -0.88241,-1.24695 -1.671983,-3.19663 -0.275436,-4.79557 2.014841,-2.30685 2.942813,-3.05792 3.806486,-3.10111 l 0.605648,-0.03 v -0.0134 l 0.135392,0.007 0.134876,-0.007 v 0.0134 l 0.606164,0.03 c 0.863673,0.0432 1.791128,0.79426 3.805969,3.10111 1.436514,1.6447 0.559976,3.6576 -0.351399,4.89789 l -0.695565,4.63641 -2.904457,-3.79468 c -1.019051,0.001 0,0 -1.019051,0.001 z"
         sodipodi:nodetypes="ccscccccccsccccc" />
      <path
         id="path1410"
         style="fill:#086c5b;fill-opacity:0.629568;stroke:none;stroke-width:0.264583px;stroke-linecap:butt;stroke-linejoin:miter;stroke-opacity:1"
         d="m -24.77328,160.28528 -0.710551,-4.73873 c -0.88241,-1.24695 -1.671983,-3.19663 -0.275436,-4.79557 2.014841,-2.30685 2.942813,-3.05792 3.806486,-3.10111 l 0.605648,-0.03 v -0.0134 l 0.135392,0.007 0.134876,-0.007 v 0.0134 l 0.606164,0.03 c 0.863673,0.0432 1.791128,0.79426 3.805969,3.10111 1.436514,1.6447 0.559976,3.6576 -0.351399,4.89789 l -0.695565,4.63641 -2.904457,-3.79468 c -1.019051,0.001 0,0 -1.019051,0.001 z"
         sodipodi:nodetypes="ccscccccccsccccc" />
    </g>
    <g
       id="g1534"
       clip-path="url(#clipPath1522)"
       transform="translate(-8.4677,-0.10232)">
      <path
         id="path1526"
         style="fill:#086c5b;fill-opacity:0.629568;stroke:none;stroke-width:0.264583px;stroke-linecap:butt;stroke-linejoin:miter;stroke-opacity:1"
         d="m -33.24098,140.48065 -0.710551,4.73873 c -0.88241,1.24695 -1.671983,3.19663 -0.275436,4.79557 2.014841,2.30685 2.942813,3.05792 3.806486,3.10111 l 0.605648,0.03 v 0.0134 l 0.135392,-0.007 0.134876,0.007 v -0.0134 l 0.606164,-0.03 c 0.863673,-0.0432 1.791128,-0.79426 3.805969,-3.10111 1.436514,-1.6447 0.559976,-3.6576 -0.351399,-4.89789 l -0.695565,-4.63641 -2.904457,3.79468 c -1.019051,-0.001 0,0 -1.019051,-0.001 z"
         sodipodi:nodetypes="ccscccccccsccccc" />
      <path
         id="path1528"
         style="fill:#086c5b;fill-opacity:0.629568;stroke:none;stroke-width:0.264583px;stroke-linecap:butt;stroke-linejoin:miter;stroke-opacity:1"
         d="m -24.77328,140.37833 -0.710551,4.73873 c -0.88241,1.24695 -1.671983,3.19663 -0.275436,4.79557 2.014841,2.30685 2.942813,3.05792 3.806486,3.10111 l 0.605648,0.03 v 0.0134 l 0.135392,-0.007 0.134876,0.007 v -0.0134 l 0.606164,-0.03 c 0.863673,-0.0432 1.791128,-0.79426 3.805969,-3.10111 1.436514,-1.6447 0.559976,-3.6576 -0.351399,-4.89789 l -0.695565,-4.63641 -2.904457,3.79468 c -1.019051,-0.001 0,0 -1.019051,-0.001 z"
         sodipodi:nodetypes="ccscccccccsccccc" />
      <path
         id="path1530"
         style="fill:#086c5b;fill-opacity:0.629568;stroke:none;stroke-width:0.264583px;stroke-linecap:butt;stroke-linejoin:miter;stroke-opacity:1"
         d="m -33.24098,160.18296 -0.710551,-4.73873 c -0.88241,-1.24695 -1.671983,-3.19663 -0.275436,-4.79557 2.014841,-2.30685 2.942813,-3.05792 3.806486,-3.10111 l 0.605648,-0.03 v -0.0134 l 0.135392,0.007 0.134876,-0.007 v 0.0134 l 0.606164,0.03 c 0.863673,0.0432 1.791128,0.79426 3.805969,3.10111 1.436514,1.6447 0.559976,3.6576 -0.351399,4.89789 l -0.695565,4.63641 -2.904457,-3.79468 c -1.019051,0.001 0,0 -1.019051,0.001 z"
         sodipodi:nodetypes="ccscccccccsccccc" />
      <path
         id="path1532"
         style="fill:#086c5b;fill-opacity:0.629568;stroke:none;stroke-width:0.264583px;stroke-linecap:butt;stroke-linejoin:miter;stroke-opacity:1"
         d="m -24.77328,160.28528 -0.710551,-4.73873 c -0.88241,-1.24695 -1.671983,-3.19663 -0.275436,-4.79557 2.014841,-2.30685 2.942813,-3.05792 3.806486,-3.10111 l 0.605648,-0.03 v -0.0134 l 0.135392,0.007 0.134876,-0.007 v 0.0134 l 0.606164,0.03 c 0.863673,0.0432 1.791128,0.79426 3.805969,3.10111 1.436514,1.6447 0.559976,3.6576 -0.351399,4.89789 l -0.695565,4.63641 -2.904457,-3.79468 c -1.019051,0.001 0,0 -1.019051,0.001 z"
         sodipodi:nodetypes="ccscccccccsccccc" />
    </g>
    <path
       id="path901"
       style="fill:#086c5b;fill-opacity:0.885382;stroke:none;stroke-width:0.1;stroke-linecap:butt;stroke-linejoin:miter;stroke-miterlimit:4;stroke-dasharray:none;stroke-opacity:0.74902"
       d="m -30.363355,166.86903 v 0.0134 l -0.537951,0.03 c -0.76664,0.0432 -1.590132,0.79425 -3.378606,3.1011 -0.3628,0.46795 -0.591455,0.88792 -0.72192,1.29501 0.130491,0.40695 0.35926,0.82724 0.72192,1.29501 1.788474,2.30685 2.611966,3.05791 3.378606,3.1011 l 0.537951,0.03 v 0.0129 l 0.119888,-0.007 0.119891,0.007 v -0.0129 l 0.537951,-0.03 c 0.76664,-0.0432 1.590132,-0.79425 3.378604,-3.1011 0.177033,-0.22834 0.327441,-0.45475 0.454753,-0.68006 0.119954,0.2174 0.269084,0.44257 0.453202,0.68006 1.788478,2.30685 2.612483,3.05791 3.379124,3.1011 l 0.537434,0.03 v 0.0129 l 0.120407,-0.007 0.119372,0.007 v -0.0129 l 0.538467,-0.03 c 0.766643,-0.0432 1.589614,-0.79425 3.378089,-3.1011 0.338481,-0.43658 0.581649,-0.86582 0.744659,-1.29501 -0.16301,-0.42919 -0.406178,-0.85843 -0.744659,-1.29501 -1.788475,-2.30685 -2.611446,-3.0579 -3.378089,-3.1011 l -0.538467,-0.03 v -0.0134 l -0.119372,0.007 -0.120407,-0.007 v 0.0134 l -0.537434,0.03 c -0.766641,0.0432 -1.590646,0.79425 -3.379124,3.1011 -0.184118,0.23748 -0.333248,0.46265 -0.453202,0.68006 -0.127339,-0.22538 -0.27767,-0.45165 -0.454753,-0.68006 -1.788472,-2.30685 -2.611964,-3.0579 -3.378604,-3.1011 l -0.537951,-0.03 v -0.0134 l -0.119891,0.007 z" />
    <path
       id="path903"
       style="fill:#086c5b;fill-opacity:0.749169;stroke:none;stroke-width:0.1;stroke-linecap:butt;stroke-linejoin:miter;stroke-miterlimit:4;stroke-dasharray:none;stroke-opacity:0.74902"
       d="m -37.560791,189.849 -1.290341,5.0276 c -0.508349,1.86639 -0.824517,2.90776 0.41513,4.5067 1.788474,2.30685 2.612191,3.05791 3.37883,3.1011 l 0.537606,0.03 v 0.0134 l 0.120181,-0.007 0.119721,0.007 v -0.0134 l 0.538064,-0.03 c 0.766639,-0.0432 1.589898,-0.79425 3.378372,-3.1011 0.177031,-0.22834 0.327723,-0.45475 0.455037,-0.68006 0.119954,0.2174 0.269084,0.44257 0.453203,0.68006 1.788477,2.30685 2.612192,3.05791 3.378832,3.1011 l 0.537604,0.03 v 0.0134 l 0.120181,-0.007 0.119723,0.007 v -0.0134 l 0.538062,-0.03 c 0.766641,-0.0432 1.589898,-0.79425 3.378374,-3.1011 1.275124,-1.6447 1.211849,-3.18284 0.512834,-5.02192 l -1.442173,-4.51238 -2.577931,3.7946 -0.904569,-0.001 -2.785726,-3.79356 -1.204104,4.6917 c -0.02146,-0.0595 -0.04367,-0.11922 -0.06651,-0.17932 l -1.442175,-4.51238 -2.57793,3.7946 -0.904568,-0.001 z"
       clip-path="url(#clipPath1009)"
       transform="matrix(-1,0,0,1,-55.917627,-26.76017)" />
    <path
       id="path1013"
       style="fill:#086c5b;fill-opacity:0.749169;stroke:none;stroke-width:0.1;stroke-linecap:butt;stroke-linejoin:miter;stroke-miterlimit:4;stroke-dasharray:none;stroke-opacity:0.74902"
       d="m -37.560791,189.849 -1.290341,5.0276 c -0.508349,1.86639 -0.824517,2.90776 0.41513,4.5067 1.788474,2.30685 2.612191,3.05791 3.37883,3.1011 l 0.537606,0.03 v 0.0134 l 0.120181,-0.007 0.119721,0.007 v -0.0134 l 0.538064,-0.03 c 0.766639,-0.0432 1.589898,-0.79425 3.378372,-3.1011 0.177031,-0.22834 0.327723,-0.45475 0.455037,-0.68006 0.119954,0.2174 0.269084,0.44257 0.453203,0.68006 1.788477,2.30685 2.612192,3.05791 3.378832,3.1011 l 0.537604,0.03 v 0.0134 l 0.120181,-0.007 0.119723,0.007 v -0.0134 l 0.538062,-0.03 c 0.766641,-0.0432 1.589898,-0.79425 3.378374,-3.1011 1.275124,-1.6447 1.211849,-3.18284 0.512834,-5.02192 l -1.442173,-4.51238 -2.577931,3.7946 -0.904569,-0.001 -2.785726,-3.79356 -1.204104,4.6917 c -0.02146,-0.0595 -0.04367,-0.11922 -0.06651,-0.17932 l -1.442175,-4.51238 -2.57793,3.7946 -0.904568,-0.001 z"
       clip-path="url(#clipPath1009)"
       transform="rotate(180,-23.293533,184.68912)" />
    <path
       id="path1015"
       style="fill:#407c56;fill-opacity:0.759136;stroke:none;stroke-width:0.264583px;stroke-linecap:butt;stroke-linejoin:miter;stroke-opacity:1"
       d="m 42.046983,184.15787 -0.710551,4.73873 c -0.88241,1.24695 -1.671983,3.19663 -0.275436,4.79557 2.014841,2.30685 2.942813,3.05792 3.806486,3.10111 l 0.605648,0.03 v 0.0134 l 0.135392,-0.007 0.134876,0.007 v -0.0134 l 0.606164,-0.03 c 0.863673,-0.0432 1.791128,-0.79426 3.805969,-3.10111 1.436514,-1.6447 0.559976,-3.6576 -0.351399,-4.89789 l -0.695565,-4.63641 -1.636076,2.90422 c -1.001088,-0.31346 -1.87172,-0.26149 -1.87172,-0.26149 0,0 -0.0638,-0.004 -0.176734,-0.004 -0.309201,0.002 -0.986838,0.0384 -1.731677,0.28061 z" />
    <path
       id="path1017"
       style="fill:#407c56;fill-opacity:0.759136;stroke:none;stroke-width:0.264583px;stroke-linecap:butt;stroke-linejoin:miter;stroke-opacity:1"
       d="m 57.399145,197.8117 0.71055,-4.73873 c 0.88241,-1.24695 1.67199,-3.19663 0.27544,-4.79557 -2.01484,-2.30685 -2.94281,-3.05792 -3.80649,-3.10111 l -0.60564,-0.03 v -0.0134 l -0.1354,0.007 -0.13487,-0.007 v 0.0134 l -0.60617,0.03 c -0.86367,0.0432 -1.79112,0.79426 -3.80597,3.10111 -1.43651,1.6447 -0.55997,3.6576 0.3514,4.89789 l 0.69557,4.63641 1.63607,-2.90422 c 1.00109,0.31346 1.87172,0.26149 1.87172,0.26149 0,0 0.0638,0.004 0.17674,0.004 0.3092,-0.002 0.98684,-0.0384 1.73168,-0.28061 z" />
    <path
       id="path1029"
       style="fill:#407c56;fill-opacity:0.759136;stroke:none;stroke-width:0.999999px;stroke-linecap:butt;stroke-linejoin:miter;stroke-opacity:1"
       d="M 206.29492 24.722656 L 203.60938 42.632812 C 201.91332 45.029537 200.30996 48.114483 199.83594 51.361328 C 200.23554 49.70274 201.04664 48.0639 202.40234 46.511719 C 208.84095 39.140004 212.3412 35.972026 215.24219 35.070312 C 214.39065 35.227097 213.46792 35.445553 212.51367 35.755859 L 206.29492 24.722656 z M 232.98438 24.722656 L 226.80078 35.699219 C 225.60177 35.323786 224.45236 35.087695 223.44141 34.939453 C 226.4442 35.625427 229.96873 38.718572 236.77539 46.511719 C 239.36726 49.479208 239.96376 52.767005 239.50781 55.902344 C 240.7051 50.920456 238.19671 45.761876 235.61328 42.246094 L 232.98438 24.722656 z M 220.66211 34.705078 L 221.91016 34.767578 C 221.41148 34.728063 221.00633 34.711658 220.66211 34.705078 z M 224.08398 72.203125 C 222.43066 72.506277 221.05512 72.569238 220.28516 72.574219 C 219.8583 72.574219 219.61719 72.558594 219.61719 72.558594 C 219.61719 72.558594 219.26779 72.576028 218.71289 72.566406 L 219.24414 72.591797 L 219.24414 72.642578 L 219.75586 72.617188 L 220.26562 72.642578 L 220.26562 72.591797 L 222.55664 72.478516 C 223.05551 72.453563 223.56004 72.364492 224.08398 72.203125 z M 215.90234 72.330078 C 216.25875 72.411455 216.60875 72.461197 216.95508 72.478516 L 217.38477 72.5 C 216.93813 72.463708 216.44127 72.409057 215.90234 72.330078 z "
       transform="matrix(0.26458333,0,0,0.26458333,11.273188,163.08215)" />
    <path
       id="path1027"
       style="fill:#407c56;fill-opacity:0.759136;stroke:none;stroke-width:0.264583px;stroke-linecap:butt;stroke-linejoin:miter;stroke-opacity:1"
       d="m 70.597816,185.15644 0.71055,-4.73873 c 0.88241,-1.24695 1.67199,-3.19663 0.27544,-4.79557 -2.01484,-2.30685 -2.94281,-3.05792 -3.80649,-3.10111 l -0.60564,-0.03 v -0.0134 l -0.1354,0.007 -0.13487,-0.007 v 0.0134 l -0.60617,0.03 c -0.86367,0.0432 -1.79112,0.79426 -3.80597,3.10111 -1.43651,1.6447 -0.55997,3.6576 0.3514,4.89789 l 0.69557,4.63641 1.63607,-2.90422 c 1.00109,0.31346 1.87172,0.26149 1.87172,0.26149 0,0 0.0638,0.004 0.17674,0.004 0.3092,-0.002 0.98684,-0.0384 1.73168,-0.28061 z"
       clip-path="url(#clipPath1023)"
       transform="translate(2.3329506,-0.22720862)" />
    <path
       id="path1221"
       style="fill:#407c56;fill-opacity:0.759136;stroke:none;stroke-width:0.264583px;stroke-linecap:butt;stroke-linejoin:miter;stroke-opacity:1"
       d="m 70.597816,185.15644 0.71055,-4.73873 c 0.88241,-1.24695 1.67199,-3.19663 0.27544,-4.79557 -2.01484,-2.30685 -2.94281,-3.05792 -3.80649,-3.10111 l -0.60564,-0.03 v -0.0134 l -0.1354,0.007 -0.13487,-0.007 v 0.0134 l -0.60617,0.03 c -0.86367,0.0432 -1.79112,0.79426 -3.80597,3.10111 -1.43651,1.6447 -0.55997,3.6576 0.3514,4.89789 l 0.69557,4.63641 1.63607,-2.90422 c 1.00109,0.31346 1.87172,0.26149 1.87172,0.26149 0,0 0.0638,0.004 0.17674,0.004 0.3092,-0.002 0.98684,-0.0384 1.73168,-0.28061 z"
       clip-path="url(#clipPath1023)"
       transform="translate(2.3329506,-0.22720862)" />
    <path
       id="path1223"
       style="fill:#407c56;fill-opacity:0.759136;stroke:none;stroke-width:0.264583px;stroke-linecap:butt;stroke-linejoin:miter;stroke-opacity:1"
       d="m 76.309199,184.87182 -0.710549,-4.73873 c -0.448749,-0.63414 -0.872972,-1.45036 -0.99839,-2.30942 0.105728,0.43883 0.320331,0.87244 0.679027,1.28312 1.703549,1.95044 2.629657,2.78863 3.39721,3.02721 -0.225303,-0.0415 -0.469442,-0.0993 -0.721921,-0.18139 z m 7.061586,0 -1.636077,-2.90422 c -0.317238,0.0993 -0.621353,0.1618 -0.888834,0.20102 0.794488,-0.1815 1.72702,-0.99989 3.527949,-3.06183 0.685766,-0.78515 0.84359,-1.65504 0.722953,-2.4846 0.316783,1.31812 -0.346895,2.683 -1.030428,3.61322 z m -3.260267,-2.64119 0.330213,-0.0165 c -0.131942,0.0104 -0.239138,0.0148 -0.330213,0.0165 z m 0.90537,-9.92136 c -0.437441,-0.0802 -0.801386,-0.0969 -1.005105,-0.0982 -0.11294,0 -0.176734,0.004 -0.176734,0.004 0,0 -0.09244,-0.005 -0.239262,-0.002 l 0.14056,-0.007 v -0.0134 l 0.135392,0.007 0.134874,-0.007 v 0.0134 l 0.606166,0.03 c 0.131993,0.007 0.265483,0.0302 0.404109,0.0729 z m -2.164726,-0.0336 c 0.0943,-0.0215 0.186904,-0.0347 0.278538,-0.0393 l 0.113688,-0.006 c -0.118173,0.01 -0.249634,0.0241 -0.392226,0.045 z" />
    <path
       id="path1225"
       style="fill:#407c56;fill-opacity:0.759136;stroke:none;stroke-width:0.264583px;stroke-linecap:butt;stroke-linejoin:miter;stroke-opacity:1"
       d="m 70.597816,185.15644 0.71055,-4.73873 c 0.88241,-1.24695 1.67199,-3.19663 0.27544,-4.79557 -2.01484,-2.30685 -2.94281,-3.05792 -3.80649,-3.10111 l -0.60564,-0.03 v -0.0134 l -0.1354,0.007 -0.13487,-0.007 v 0.0134 l -0.60617,0.03 c -0.86367,0.0432 -1.79112,0.79426 -3.80597,3.10111 -1.43651,1.6447 -0.55997,3.6576 0.3514,4.89789 l 0.69557,4.63641 1.63607,-2.90422 c 1.00109,0.31346 1.87172,0.26149 1.87172,0.26149 0,0 0.0638,0.004 0.17674,0.004 0.3092,-0.002 0.98684,-0.0384 1.73168,-0.28061 z"
       clip-path="url(#clipPath1023)"
       transform="matrix(1,0,0,-1,12.786765,354.72238)" />
    <path
       id="path1227"
       style="fill:#407c56;fill-opacity:0.759136;stroke:none;stroke-width:0.264583px;stroke-linecap:butt;stroke-linejoin:miter;stroke-opacity:1"
       d="m 70.597816,185.15644 0.71055,-4.73873 c 0.88241,-1.24695 1.67199,-3.19663 0.27544,-4.79557 -2.01484,-2.30685 -2.94281,-3.05792 -3.80649,-3.10111 l -0.60564,-0.03 v -0.0134 l -0.1354,0.007 -0.13487,-0.007 v 0.0134 l -0.60617,0.03 c -0.86367,0.0432 -1.79112,0.79426 -3.80597,3.10111 -1.43651,1.6447 -0.55997,3.6576 0.3514,4.89789 l 0.69557,4.63641 1.63607,-2.90422 c 1.00109,0.31346 1.87172,0.26149 1.87172,0.26149 0,0 0.0638,0.004 0.17674,0.004 0.3092,-0.002 0.98684,-0.0384 1.73168,-0.28061 z"
       clip-path="url(#clipPath1023)"
       transform="translate(12.815966,-0.22720862)" />
    <path
       id="path1229"
       style="fill:#407c56;fill-opacity:0.759136;stroke:none;stroke-width:0.264583px;stroke-linecap:butt;stroke-linejoin:miter;stroke-opacity:1"
       d="m 42.163785,189.64758 -0.710551,4.73873 c -0.88241,1.24695 -1.671983,3.19663 -0.275436,4.79557 2.014841,2.30685 2.942813,3.05792 3.806486,3.10111 l 0.605648,0.03 v 0.0134 l 0.135392,-0.007 0.134876,0.007 v -0.0134 l 0.606164,-0.03 c 0.863673,-0.0432 1.791128,-0.79426 3.805969,-3.10111 1.436514,-1.6447 0.559976,-3.6576 -0.351399,-4.89789 l -0.695565,-4.63641 -1.636076,2.90422 c -1.001088,-0.31346 -1.87172,-0.26149 -1.87172,-0.26149 0,0 -0.0638,-0.004 -0.176734,-0.004 -0.309201,0.002 -0.986838,0.0384 -1.731677,0.28061 z" />
    <path
       id="path1231"
       style="fill:#407c56;fill-opacity:0.759136;stroke:none;stroke-width:0.264583px;stroke-linecap:butt;stroke-linejoin:miter;stroke-opacity:1"
       d="m 57.515947,203.30141 0.71055,-4.73873 c 0.88241,-1.24695 1.67199,-3.19663 0.27544,-4.79557 -2.01484,-2.30685 -2.94281,-3.05792 -3.80649,-3.10111 l -0.60564,-0.03 v -0.0134 l -0.1354,0.007 -0.13487,-0.007 v 0.0134 l -0.60617,0.03 c -0.86367,0.0432 -1.79112,0.79426 -3.80597,3.10111 -1.43651,1.6447 -0.55997,3.6576 0.3514,4.89789 l 0.69557,4.63641 1.63607,-2.90422 c 1.00109,0.31346 1.87172,0.26149 1.87172,0.26149 0,0 0.0638,0.004 0.17674,0.004 0.3092,-0.002 0.98684,-0.0384 1.73168,-0.28061 z" />
    <path
       id="path1105"
       style="fill:#086c5b;fill-opacity:0.652824;stroke:none;stroke-width:0.1;stroke-linecap:butt;stroke-linejoin:miter;stroke-miterlimit:4;stroke-dasharray:none;stroke-opacity:0.74902"
       d="m 2.0325668,210.73753 -1.290341,5.0276 c -0.508349,1.86639 -0.824517,2.90776 0.41513,4.5067 1.788474,2.30685 2.612191,3.05791 3.37883,3.1011 l 0.537606,0.03 v 0.0134 l 0.120181,-0.007 0.119721,0.007 v -0.0134 l 0.538064,-0.03 c 0.766639,-0.0432 1.589898,-0.79425 3.378372,-3.1011 0.177031,-0.22834 0.327723,-0.45475 0.455037,-0.68006 0.119954,0.2174 0.269084,0.44257 0.4532032,0.68006 1.788477,2.30685 2.612192,3.05791 3.378832,3.1011 l 0.537604,0.03 v 0.0134 l 0.120181,-0.007 0.119723,0.007 v -0.0134 l 0.538062,-0.03 c 0.766641,-0.0432 1.589898,-0.79425 3.378374,-3.1011 1.275124,-1.6447 1.211849,-3.18284 0.512834,-5.02192 l -1.442173,-4.51238 -2.577931,3.7946 -0.904569,-0.001 -2.785726,-3.79356 -1.2041042,4.6917 c -0.02146,-0.0595 -0.04367,-0.11922 -0.06651,-0.17932 l -1.442175,-4.51238 -2.57793,3.7946 -0.904568,-0.001 z" />
    <path
       id="path1107"
       style="fill:#086c5b;fill-opacity:0.652824;fill-rule:nonzero;stroke:none;stroke-width:0.149;stroke-linecap:butt;stroke-linejoin:miter;stroke-miterlimit:4;stroke-dasharray:none;stroke-opacity:1"
       d="m 5.0737918,214.53757 v 0.0134 l -0.537606,0.03 c -0.766639,0.0432 -1.590356,0.79425 -3.37883,3.1011 -1.239647,1.59894 -0.923479,2.64031 -0.41513,4.5067 l 1.290341,5.0276 2.785726,-3.79356 0.904568,-0.001 2.57793,3.7946 1.442175,-4.51238 c 0.02284,-0.0601 0.04505,-0.11986 0.06651,-0.17932 l 1.2041042,4.6917 2.785726,-3.79356 0.904569,-0.001 2.577931,3.7946 1.442173,-4.51238 c 0.699015,-1.83909 0.76229,-3.37722 -0.512834,-5.02192 -1.788476,-2.30685 -2.611733,-3.0579 -3.378374,-3.1011 l -0.538062,-0.03 v -0.0134 l -0.119723,0.007 -0.120181,-0.007 v 0.0134 l -0.537604,0.03 c -0.76664,0.0432 -1.590355,0.79425 -3.378832,3.1011 -0.1841192,0.23748 -0.3332492,0.46265 -0.4532032,0.68006 -0.12734,-0.22538 -0.277954,-0.45165 -0.455037,-0.68006 -1.788474,-2.30685 -2.611733,-3.0579 -3.378372,-3.1011 l -0.538064,-0.03 v -0.0134 l -0.119721,0.007 z" />
    <path
       id="path1109"
       style="fill:#086c5b;fill-opacity:0.885382;stroke:none;stroke-width:0.1;stroke-linecap:butt;stroke-linejoin:miter;stroke-miterlimit:4;stroke-dasharray:none;stroke-opacity:0.74902"
       d="m 5.0737918,214.52441 v 0.0134 l -0.537951,0.03 c -0.76664,0.0432 -1.590132,0.79425 -3.378606,3.1011 -0.3628,0.46795 -0.591455,0.88792 -0.72192,1.29501 0.130491,0.40695 0.35926,0.82724 0.72192,1.29501 1.788474,2.30685 2.611966,3.05791 3.378606,3.1011 l 0.537951,0.03 v 0.0129 l 0.119888,-0.007 0.119891,0.007 v -0.0129 l 0.537951,-0.03 c 0.76664,-0.0432 1.590132,-0.79425 3.378604,-3.1011 0.177033,-0.22834 0.327441,-0.45475 0.454753,-0.68006 0.119954,0.2174 0.269084,0.44257 0.4532022,0.68006 1.788478,2.30685 2.612483,3.05791 3.379124,3.1011 l 0.537434,0.03 v 0.0129 l 0.120407,-0.007 0.119372,0.007 v -0.0129 l 0.538467,-0.03 c 0.766643,-0.0432 1.589614,-0.79425 3.378089,-3.1011 0.338481,-0.43658 0.581649,-0.86582 0.744659,-1.29501 -0.16301,-0.42919 -0.406178,-0.85843 -0.744659,-1.29501 -1.788475,-2.30685 -2.611446,-3.0579 -3.378089,-3.1011 l -0.538467,-0.03 v -0.0134 l -0.119372,0.007 -0.120407,-0.007 v 0.0134 l -0.537434,0.03 c -0.766641,0.0432 -1.590646,0.79425 -3.379124,3.1011 -0.1841182,0.23748 -0.3332482,0.46265 -0.4532022,0.68006 -0.127339,-0.22538 -0.27767,-0.45165 -0.454753,-0.68006 -1.788472,-2.30685 -2.611964,-3.0579 -3.378604,-3.1011 l -0.537951,-0.03 v -0.0134 l -0.119891,0.007 z" />
  </g>
</svg>
